<svg width="262" height="96" viewBox="0 0 262 96" fill="none" xmlns="http://www.w3.org/2000/svg">
<rect width="262" height="96" rx="32" fill="white"/>
<rect x="17" y="12" width="227" height="73" rx="22" stroke="#00B97C" stroke-width="4"/>
<path d="M53.536 66.772C50.344 66.772 47.764 65.812 45.796 63.892C43.852 61.948 42.448 58.996 41.584 55.036L47.776 53.164C48.424 58.132 50.236 60.616 53.212 60.616C54.268 60.616 55.096 60.364 55.696 59.86C56.32 59.332 56.764 58.66 57.028 57.844C57.316 57.028 57.496 56.14 57.568 55.18C57.64 54.22 57.676 53.308 57.676 52.444C57.676 51.22 57.64 49.852 57.568 48.34C57.496 46.828 57.34 45.052 57.1 43.012C56.884 40.972 56.524 38.572 56.02 35.812L62.716 34.696C62.884 35.992 63.064 37.576 63.256 39.448C63.448 41.296 63.616 43.264 63.76 45.352C63.904 47.44 63.976 49.48 63.976 51.472C63.976 52.504 63.928 53.692 63.832 55.036C63.76 56.38 63.556 57.736 63.22 59.104C62.884 60.472 62.344 61.744 61.6 62.92C60.856 64.072 59.824 64.996 58.504 65.692C57.208 66.412 55.552 66.772 53.536 66.772ZM78.6466 66.952C76.7266 66.952 75.0466 66.64 73.6066 66.016C72.1906 65.392 71.0146 64.54 70.0786 63.46C69.1426 62.356 68.4466 61.096 67.9906 59.68C67.5346 58.264 67.3066 56.776 67.3066 55.216C67.3066 53.632 67.5826 52.168 68.1346 50.824C68.7106 49.456 69.4906 48.268 70.4746 47.26C71.4826 46.252 72.6586 45.472 74.0026 44.92C75.3466 44.344 76.8106 44.056 78.3946 44.056C80.0506 44.056 81.5866 44.344 83.0026 44.92C84.4186 45.496 85.6546 46.3 86.7106 47.332C87.7666 48.364 88.5826 49.576 89.1586 50.968C89.7586 52.36 90.0586 53.872 90.0586 55.504C90.0586 59.128 89.0626 61.948 87.0706 63.964C85.0786 65.956 82.2706 66.952 78.6466 66.952ZM78.6106 61.12C80.3626 61.12 81.6946 60.628 82.6066 59.644C83.5426 58.66 84.0106 57.244 84.0106 55.396C84.0106 53.74 83.5066 52.408 82.4986 51.4C81.4906 50.392 80.1706 49.888 78.5386 49.888C77.5546 49.888 76.6546 50.152 75.8386 50.68C75.0226 51.184 74.3626 51.868 73.8586 52.732C73.3786 53.572 73.1386 54.508 73.1386 55.54C73.1386 56.452 73.3186 57.34 73.6786 58.204C74.0626 59.068 74.6626 59.776 75.4786 60.328C76.2946 60.856 77.3386 61.12 78.6106 61.12ZM93.2043 66.592C93.2043 64.624 93.2403 62.512 93.3123 60.256C93.3843 58 93.4803 55.708 93.6003 53.38C93.7203 51.052 93.8403 48.772 93.9603 46.54C94.1043 44.308 94.2483 42.208 94.3923 40.24C94.5363 38.248 94.6563 36.484 94.7523 34.948L100.764 35.02C100.62 36.388 100.476 37.924 100.332 39.628C100.212 41.332 100.092 43.144 99.9723 45.064C100.668 44.776 101.412 44.56 102.204 44.416C103.02 44.248 103.896 44.164 104.832 44.164C106.104 44.164 107.316 44.38 108.468 44.812C109.644 45.22 110.7 45.856 111.636 46.72C112.572 47.584 113.304 48.7 113.832 50.068C114.384 51.436 114.66 53.08 114.66 55C114.66 57.04 114.372 58.804 113.796 60.292C113.22 61.78 112.44 63.004 111.456 63.964C110.472 64.924 109.356 65.632 108.108 66.088C106.884 66.568 105.624 66.808 104.328 66.808C103.344 66.808 102.42 66.676 101.556 66.412C100.716 66.148 99.9363 65.8 99.2163 65.368C99.2163 65.752 99.2163 66.136 99.2163 66.52L93.2043 66.592ZM104.004 50.212C102.204 50.212 100.74 50.74 99.6123 51.796C99.5163 54.004 99.4323 56.164 99.3603 58.276C100.536 59.836 102.18 60.616 104.292 60.616C104.988 60.616 105.684 60.46 106.38 60.148C107.1 59.812 107.7 59.248 108.18 58.456C108.66 57.664 108.9 56.56 108.9 55.144C108.9 53.536 108.48 52.312 107.64 51.472C106.824 50.632 105.612 50.212 104.004 50.212ZM127.687 66.988C126.055 66.988 124.543 66.796 123.151 66.412C121.759 66.028 120.499 65.536 119.371 64.936C118.243 64.336 117.235 63.7 116.347 63.028L119.587 57.808C120.595 58.744 121.567 59.464 122.503 59.968C123.439 60.472 124.411 60.82 125.419 61.012C126.451 61.204 127.567 61.3 128.767 61.3C129.799 61.3 130.627 61.168 131.251 60.904C131.875 60.616 132.187 60.256 132.187 59.824C132.187 59.464 131.887 59.188 131.287 58.996C130.687 58.78 129.919 58.6 128.983 58.456C128.047 58.288 127.063 58.084 126.031 57.844C124.567 57.46 123.199 57.016 121.927 56.512C120.655 56.008 119.623 55.324 118.831 54.46C118.063 53.596 117.679 52.444 117.679 51.004C117.679 49.852 117.955 48.844 118.507 47.98C119.059 47.092 119.791 46.36 120.703 45.784C121.639 45.184 122.695 44.74 123.871 44.452C125.047 44.164 126.259 44.02 127.507 44.02C129.667 44.02 131.527 44.284 133.087 44.812C134.671 45.316 136.183 45.988 137.623 46.828L134.347 51.796C133.627 51.292 132.799 50.86 131.863 50.5C130.951 50.116 130.027 49.828 129.091 49.636C128.179 49.42 127.327 49.312 126.535 49.312C125.671 49.312 124.987 49.444 124.483 49.708C124.003 49.972 123.763 50.344 123.763 50.824C123.763 51.112 124.063 51.388 124.663 51.652C125.287 51.892 126.463 52.216 128.191 52.624C129.223 52.864 130.315 53.116 131.467 53.38C132.619 53.62 133.699 53.968 134.707 54.424C135.739 54.856 136.567 55.492 137.191 56.332C137.839 57.148 138.163 58.24 138.163 59.608C138.163 61.912 137.239 63.712 135.391 65.008C133.543 66.328 130.975 66.988 127.687 66.988ZM141.695 66.484C141.671 66.292 141.647 66.04 141.623 65.728C141.623 65.416 141.623 65.056 141.623 64.648C141.623 63.664 141.647 62.464 141.695 61.048C141.767 59.608 141.851 58.048 141.947 56.368C142.043 54.664 142.151 52.948 142.271 51.22C142.391 49.468 142.511 47.788 142.631 46.18C142.775 44.548 142.907 43.096 143.027 41.824C142.643 41.872 142.271 41.92 141.911 41.968L141.119 35.848C143.615 35.512 146.267 35.272 149.075 35.128C151.907 34.984 154.667 34.912 157.355 34.912C159.371 34.912 161.303 34.96 163.151 35.056C165.023 35.128 166.703 35.236 168.191 35.38L167.651 41.356C166.547 41.14 165.287 40.996 163.871 40.924C162.455 40.828 160.931 40.78 159.299 40.78C157.619 40.78 155.879 40.828 154.079 40.924C152.303 40.996 150.575 41.092 148.895 41.212C148.799 42.172 148.703 43.168 148.607 44.2C148.535 45.232 148.463 46.3 148.391 47.404C149.639 47.236 151.019 47.116 152.531 47.044C154.067 46.972 155.591 46.936 157.103 46.936C158.831 46.936 160.451 46.984 161.963 47.08C163.499 47.176 164.675 47.344 165.491 47.584L165.059 53.38C163.379 53.188 161.807 53.056 160.343 52.984C158.879 52.888 157.451 52.84 156.059 52.84C153.347 52.84 150.671 53.02 148.031 53.38C147.887 55.9 147.767 58.3 147.671 60.58C147.599 62.86 147.539 64.78 147.491 66.34L141.695 66.484ZM171.1 40.744C171.1 40.528 171.088 40.312 171.064 40.096C171.064 39.856 171.064 39.592 171.064 39.304C171.064 38.536 171.088 37.72 171.136 36.856C171.184 35.992 171.232 35.26 171.28 34.66L177.688 34.768C177.616 35.584 177.532 36.508 177.436 37.54C177.364 38.572 177.316 39.64 177.292 40.744H171.1ZM170.956 66.52C170.884 65.032 170.836 63.448 170.812 61.768C170.788 60.064 170.776 58.36 170.776 56.656C170.776 54.424 170.8 52.252 170.848 50.14C170.896 48.028 170.956 46.108 171.028 44.38L177.22 44.344C177.124 45.448 177.064 46.816 177.04 48.448C177.016 50.056 177.004 51.748 177.004 53.524C177.004 55.276 177.016 57.004 177.04 58.708C177.064 60.412 177.088 61.96 177.112 63.352C177.16 64.72 177.196 65.776 177.22 66.52H170.956ZM187.721 66.844C186.401 66.844 185.309 66.556 184.445 65.98C183.605 65.428 182.933 64.66 182.429 63.676C181.949 62.692 181.589 61.564 181.349 60.292C181.133 59.02 180.989 57.664 180.917 56.224C180.869 54.76 180.845 53.296 180.845 51.832C180.845 50.56 180.881 49.168 180.953 47.656C181.025 46.12 181.109 44.572 181.205 43.012C181.325 41.428 181.445 39.94 181.565 38.548C181.709 37.156 181.841 35.944 181.961 34.912L188.477 34.984C188.285 36.208 188.105 37.6 187.937 39.16C187.769 40.696 187.625 42.256 187.505 43.84C187.409 45.424 187.325 46.888 187.253 48.232C187.205 49.576 187.181 50.644 187.181 51.436C187.181 53.62 187.217 55.336 187.289 56.584C187.385 57.832 187.517 58.72 187.685 59.248C187.877 59.752 188.129 60.004 188.441 60.004C188.849 60.004 189.293 59.752 189.773 59.248C190.253 58.72 190.721 58.132 191.177 57.484L194.237 63.568C193.493 64.384 192.605 65.128 191.573 65.8C190.541 66.496 189.257 66.844 187.721 66.844ZM208.202 66.88C205.898 66.88 203.87 66.424 202.118 65.512C200.39 64.624 199.034 63.376 198.05 61.768C197.09 60.16 196.61 58.3 196.61 56.188C196.61 54.916 196.826 53.584 197.258 52.192C197.69 50.776 198.386 49.456 199.346 48.232C200.306 47.008 201.566 46.012 203.126 45.244C204.71 44.476 206.63 44.092 208.886 44.092C210.518 44.092 211.886 44.272 212.99 44.632C214.118 44.992 215.03 45.46 215.726 46.036C216.446 46.612 216.986 47.224 217.346 47.872C217.73 48.52 217.982 49.144 218.102 49.744C218.246 50.32 218.318 50.8 218.318 51.184C218.318 53.512 217.334 55.312 215.366 56.584C213.422 57.832 210.662 58.456 207.086 58.456C206.27 58.456 205.49 58.42 204.746 58.348C204.026 58.276 203.354 58.192 202.73 58.096C203.186 59.296 203.942 60.184 204.998 60.76C206.054 61.312 207.146 61.588 208.274 61.588C209.906 61.588 211.346 61.3 212.594 60.724C213.842 60.124 215.018 59.212 216.122 57.988L219.326 62.596C218.558 63.22 217.694 63.868 216.734 64.54C215.798 65.212 214.646 65.764 213.278 66.196C211.91 66.652 210.218 66.88 208.202 66.88ZM208.994 49.492C207.578 49.492 206.33 49.852 205.25 50.572C204.17 51.292 203.378 52.24 202.874 53.416C203.474 53.512 204.062 53.596 204.638 53.668C205.238 53.716 205.826 53.74 206.402 53.74C206.93 53.74 207.53 53.692 208.202 53.596C208.898 53.5 209.57 53.356 210.218 53.164C210.89 52.972 211.442 52.732 211.874 52.444C212.306 52.132 212.522 51.772 212.522 51.364C212.522 51.172 212.426 50.932 212.234 50.644C212.042 50.356 211.694 50.092 211.19 49.852C210.686 49.612 209.954 49.492 208.994 49.492Z" fill="black"/>
</svg>
